<mxfile host="app.diagrams.net" modified="2023-05-10T19:40:06.568Z" agent="Mozilla/5.0 (Windows NT 10.0; Win64; x64) AppleWebKit/537.36 (KHTML, like Gecko) Chrome/112.0.0.0 Safari/537.36 OPR/98.0.0.0" etag="31c_kXsuUzTciOXA4Sb5" version="21.2.9" type="device">
  <diagram id="n9IUGAq4Bf1gMtO6bSM8" name="Page-1">
    <mxGraphModel dx="1694" dy="1807" grid="1" gridSize="10" guides="1" tooltips="1" connect="1" arrows="1" fold="1" page="1" pageScale="1" pageWidth="827" pageHeight="1169" math="0" shadow="0">
      <root>
        <mxCell id="0" />
        <mxCell id="1" parent="0" />
        <mxCell id="_GHX01y-DZocpkOoPTyp-9" value="" style="rounded=0;whiteSpace=wrap;html=1;" vertex="1" parent="1">
          <mxGeometry x="235" y="-10" width="395" height="500" as="geometry" />
        </mxCell>
        <mxCell id="_GHX01y-DZocpkOoPTyp-27" style="edgeStyle=orthogonalEdgeStyle;rounded=0;orthogonalLoop=1;jettySize=auto;html=1;entryX=1;entryY=0.5;entryDx=0;entryDy=0;" edge="1" parent="1" source="YciA3-D2Hrlz0En6Nftz-1" target="_GHX01y-DZocpkOoPTyp-16">
          <mxGeometry relative="1" as="geometry">
            <Array as="points">
              <mxPoint x="755" y="285" />
            </Array>
          </mxGeometry>
        </mxCell>
        <mxCell id="_GHX01y-DZocpkOoPTyp-28" style="edgeStyle=orthogonalEdgeStyle;rounded=0;orthogonalLoop=1;jettySize=auto;html=1;entryX=1;entryY=0.5;entryDx=0;entryDy=0;" edge="1" parent="1" source="YciA3-D2Hrlz0En6Nftz-1" target="_GHX01y-DZocpkOoPTyp-17">
          <mxGeometry relative="1" as="geometry">
            <Array as="points">
              <mxPoint x="755" y="367" />
            </Array>
          </mxGeometry>
        </mxCell>
        <mxCell id="_GHX01y-DZocpkOoPTyp-29" style="edgeStyle=orthogonalEdgeStyle;rounded=0;orthogonalLoop=1;jettySize=auto;html=1;entryX=1;entryY=0.5;entryDx=0;entryDy=0;" edge="1" parent="1" source="YciA3-D2Hrlz0En6Nftz-1" target="YciA3-D2Hrlz0En6Nftz-9">
          <mxGeometry relative="1" as="geometry">
            <Array as="points">
              <mxPoint x="755" y="445" />
            </Array>
          </mxGeometry>
        </mxCell>
        <mxCell id="YciA3-D2Hrlz0En6Nftz-1" value="Concessionária" style="shape=umlActor;verticalLabelPosition=middle;verticalAlign=middle;html=1;outlineConnect=0;labelPosition=right;align=left;" parent="1" vertex="1">
          <mxGeometry x="740" y="220" width="30" height="60" as="geometry" />
        </mxCell>
        <mxCell id="_GHX01y-DZocpkOoPTyp-20" style="edgeStyle=orthogonalEdgeStyle;rounded=0;orthogonalLoop=1;jettySize=auto;html=1;entryX=0;entryY=0.5;entryDx=0;entryDy=0;" edge="1" parent="1" source="YciA3-D2Hrlz0En6Nftz-2" target="YciA3-D2Hrlz0En6Nftz-5">
          <mxGeometry relative="1" as="geometry" />
        </mxCell>
        <mxCell id="_GHX01y-DZocpkOoPTyp-24" style="edgeStyle=orthogonalEdgeStyle;rounded=0;orthogonalLoop=1;jettySize=auto;html=1;entryX=0.038;entryY=0.626;entryDx=0;entryDy=0;entryPerimeter=0;" edge="1" parent="1" source="YciA3-D2Hrlz0En6Nftz-2" target="_GHX01y-DZocpkOoPTyp-16">
          <mxGeometry relative="1" as="geometry">
            <Array as="points">
              <mxPoint x="135" y="294" />
            </Array>
          </mxGeometry>
        </mxCell>
        <mxCell id="_GHX01y-DZocpkOoPTyp-25" style="edgeStyle=orthogonalEdgeStyle;rounded=0;orthogonalLoop=1;jettySize=auto;html=1;entryX=0;entryY=0.5;entryDx=0;entryDy=0;" edge="1" parent="1" source="YciA3-D2Hrlz0En6Nftz-2" target="_GHX01y-DZocpkOoPTyp-17">
          <mxGeometry relative="1" as="geometry">
            <Array as="points">
              <mxPoint x="135" y="367" />
            </Array>
          </mxGeometry>
        </mxCell>
        <mxCell id="_GHX01y-DZocpkOoPTyp-26" style="edgeStyle=orthogonalEdgeStyle;rounded=0;orthogonalLoop=1;jettySize=auto;html=1;entryX=0;entryY=0.5;entryDx=0;entryDy=0;" edge="1" parent="1" source="YciA3-D2Hrlz0En6Nftz-2" target="YciA3-D2Hrlz0En6Nftz-9">
          <mxGeometry relative="1" as="geometry">
            <Array as="points">
              <mxPoint x="135" y="445" />
            </Array>
          </mxGeometry>
        </mxCell>
        <mxCell id="YciA3-D2Hrlz0En6Nftz-2" value="Usuário&lt;br&gt;" style="shape=umlActor;verticalLabelPosition=top;verticalAlign=bottom;html=1;outlineConnect=0;labelPosition=center;align=center;" parent="1" vertex="1">
          <mxGeometry x="120" y="195" width="30" height="60" as="geometry" />
        </mxCell>
        <mxCell id="YciA3-D2Hrlz0En6Nftz-4" value="&lt;span style=&quot;text-align: left;&quot;&gt;CRUD Veículo&lt;/span&gt;" style="ellipse;whiteSpace=wrap;html=1;" parent="1" vertex="1">
          <mxGeometry x="450" y="20" width="90" height="60" as="geometry" />
        </mxCell>
        <mxCell id="YciA3-D2Hrlz0En6Nftz-5" value="Gerar Registro de Agendamento" style="ellipse;whiteSpace=wrap;html=1;" parent="1" vertex="1">
          <mxGeometry x="270" y="190" width="105" height="70" as="geometry" />
        </mxCell>
        <mxCell id="YciA3-D2Hrlz0En6Nftz-9" value="&lt;span style=&quot;text-align: left;&quot;&gt;Alterar Agendamento&lt;/span&gt;" style="ellipse;whiteSpace=wrap;html=1;" parent="1" vertex="1">
          <mxGeometry x="354.5" y="410" width="105" height="70" as="geometry" />
        </mxCell>
        <mxCell id="IJ9NsDXmOlFILfq46lCH-5" value="" style="endArrow=classic;html=1;rounded=0;exitX=0.25;exitY=0.1;exitDx=0;exitDy=0;exitPerimeter=0;entryX=1;entryY=0.5;entryDx=0;entryDy=0;" parent="1" source="YciA3-D2Hrlz0En6Nftz-1" target="YciA3-D2Hrlz0En6Nftz-4" edge="1">
          <mxGeometry width="50" height="50" relative="1" as="geometry">
            <mxPoint x="390" y="310" as="sourcePoint" />
            <mxPoint x="440" y="260" as="targetPoint" />
          </mxGeometry>
        </mxCell>
        <mxCell id="_GHX01y-DZocpkOoPTyp-10" value="Sistema de Agendamento (Test-Drive)" style="text;html=1;align=center;verticalAlign=middle;resizable=0;points=[];autosize=1;strokeColor=none;fillColor=none;fontStyle=1" vertex="1" parent="1">
          <mxGeometry x="279" y="-10" width="240" height="30" as="geometry" />
        </mxCell>
        <mxCell id="_GHX01y-DZocpkOoPTyp-16" value="Verificar agendamento" style="ellipse;whiteSpace=wrap;html=1;" vertex="1" parent="1">
          <mxGeometry x="354.5" y="250" width="105" height="70" as="geometry" />
        </mxCell>
        <mxCell id="_GHX01y-DZocpkOoPTyp-17" value="Cancelar Agendamento" style="ellipse;whiteSpace=wrap;html=1;" vertex="1" parent="1">
          <mxGeometry x="355" y="332" width="105" height="70" as="geometry" />
        </mxCell>
        <mxCell id="_GHX01y-DZocpkOoPTyp-18" value="&lt;span style=&quot;text-align: left;&quot;&gt;Procurar Veículo&lt;/span&gt;" style="ellipse;whiteSpace=wrap;html=1;" vertex="1" parent="1">
          <mxGeometry x="355" y="90" width="90" height="60" as="geometry" />
        </mxCell>
        <mxCell id="_GHX01y-DZocpkOoPTyp-21" value="" style="endArrow=open;html=1;rounded=0;dashed=1;entryX=0.5;entryY=0;entryDx=0;entryDy=0;exitX=0;exitY=1;exitDx=0;exitDy=0;endFill=0;" edge="1" parent="1" source="_GHX01y-DZocpkOoPTyp-18" target="YciA3-D2Hrlz0En6Nftz-5">
          <mxGeometry width="50" height="50" relative="1" as="geometry">
            <mxPoint x="410" y="240" as="sourcePoint" />
            <mxPoint x="460" y="190" as="targetPoint" />
          </mxGeometry>
        </mxCell>
        <mxCell id="_GHX01y-DZocpkOoPTyp-23" value="&amp;lt;&amp;lt;estende&amp;gt;&amp;gt;" style="edgeLabel;html=1;align=center;verticalAlign=middle;resizable=0;points=[];" vertex="1" connectable="0" parent="_GHX01y-DZocpkOoPTyp-21">
          <mxGeometry x="-0.42" y="-2" relative="1" as="geometry">
            <mxPoint as="offset" />
          </mxGeometry>
        </mxCell>
        <mxCell id="_GHX01y-DZocpkOoPTyp-30" value="" style="endArrow=open;html=1;rounded=0;dashed=1;entryX=0.715;entryY=0.953;entryDx=0;entryDy=0;exitX=0.5;exitY=0;exitDx=0;exitDy=0;endFill=0;entryPerimeter=0;" edge="1" parent="1" source="_GHX01y-DZocpkOoPTyp-16" target="_GHX01y-DZocpkOoPTyp-18">
          <mxGeometry width="50" height="50" relative="1" as="geometry">
            <mxPoint x="378" y="151" as="sourcePoint" />
            <mxPoint x="332" y="200" as="targetPoint" />
          </mxGeometry>
        </mxCell>
        <mxCell id="_GHX01y-DZocpkOoPTyp-31" value="&amp;lt;&amp;lt;usa&amp;gt;&amp;gt;" style="edgeLabel;html=1;align=center;verticalAlign=middle;resizable=0;points=[];" vertex="1" connectable="0" parent="_GHX01y-DZocpkOoPTyp-30">
          <mxGeometry x="-0.42" y="-2" relative="1" as="geometry">
            <mxPoint as="offset" />
          </mxGeometry>
        </mxCell>
        <mxCell id="_GHX01y-DZocpkOoPTyp-32" value="" style="endArrow=open;html=1;rounded=0;dashed=1;entryX=1;entryY=1;entryDx=0;entryDy=0;exitX=0.954;exitY=0.24;exitDx=0;exitDy=0;endFill=0;exitPerimeter=0;" edge="1" parent="1" source="_GHX01y-DZocpkOoPTyp-17" target="_GHX01y-DZocpkOoPTyp-18">
          <mxGeometry width="50" height="50" relative="1" as="geometry">
            <mxPoint x="417" y="260" as="sourcePoint" />
            <mxPoint x="429" y="157" as="targetPoint" />
            <Array as="points">
              <mxPoint x="500" y="270" />
              <mxPoint x="480" y="220" />
            </Array>
          </mxGeometry>
        </mxCell>
        <mxCell id="_GHX01y-DZocpkOoPTyp-33" value="&amp;lt;&amp;lt;usa&amp;gt;&amp;gt;" style="edgeLabel;html=1;align=center;verticalAlign=middle;resizable=0;points=[];" vertex="1" connectable="0" parent="_GHX01y-DZocpkOoPTyp-32">
          <mxGeometry x="-0.42" y="-2" relative="1" as="geometry">
            <mxPoint x="-11" y="-90" as="offset" />
          </mxGeometry>
        </mxCell>
        <mxCell id="_GHX01y-DZocpkOoPTyp-34" value="" style="endArrow=open;html=1;rounded=0;dashed=1;entryX=1;entryY=0.5;entryDx=0;entryDy=0;exitX=1;exitY=0;exitDx=0;exitDy=0;endFill=0;" edge="1" parent="1" source="YciA3-D2Hrlz0En6Nftz-9" target="_GHX01y-DZocpkOoPTyp-18">
          <mxGeometry width="50" height="50" relative="1" as="geometry">
            <mxPoint x="427" y="270" as="sourcePoint" />
            <mxPoint x="439" y="167" as="targetPoint" />
            <Array as="points">
              <mxPoint x="560" y="340" />
              <mxPoint x="580" y="270" />
            </Array>
          </mxGeometry>
        </mxCell>
        <mxCell id="_GHX01y-DZocpkOoPTyp-35" value="&amp;lt;&amp;lt;usa&amp;gt;&amp;gt;" style="edgeLabel;html=1;align=center;verticalAlign=middle;resizable=0;points=[];" vertex="1" connectable="0" parent="_GHX01y-DZocpkOoPTyp-34">
          <mxGeometry x="-0.42" y="-2" relative="1" as="geometry">
            <mxPoint x="-5" y="-133" as="offset" />
          </mxGeometry>
        </mxCell>
      </root>
    </mxGraphModel>
  </diagram>
</mxfile>
